<svg xmlns="http://www.w3.org/2000/svg" viewBox="0 0 50 50"><title>circle-text-eg</title><text transform="translate(0.09 22.79) rotate(-84.34)" style="font-size:4.072847843170166px;font-family:Blanch-Caps, Blanch"> </text><text transform="matrix(0.12, -0.99, 0.99, 0.12, 0.15, 22.22)" style="font-size:4.072847843170166px;font-family:Blanch-Caps, Blanch"> </text><text transform="translate(0.21 21.67) rotate(-80.95)" style="font-size:4.072847843170166px;font-family:Blanch-Caps, Blanch">D</text><text transform="translate(0.42 20.43) rotate(-78.84)" style="font-size:4.072847843170166px;font-family:Blanch-Caps, Blanch">i</text><text transform="translate(0.53 19.85) rotate(-77)" style="font-size:4.072847843170166px;font-family:Blanch-Caps, Blanch">e</text><text transform="matrix(0.26, -0.96, 0.96, 0.26, 0.72, 18.99)" style="font-size:4.072847843170166px;font-family:Blanch-Caps, Blanch">s</text><text transform="matrix(0.3, -0.95, 0.95, 0.3, 1.03, 17.87)" style="font-size:4.072847843170166px;font-family:Blanch-Caps, Blanch">e</text><text transform="translate(1.32 16.93) rotate(-70.07)" style="font-size:4.072847843170166px;font-family:Blanch-Caps, Blanch">l</text><text transform="matrix(0.37, -0.93, 0.93, 0.37, 1.65, 16.03)" style="font-size:4.072847843170166px;font-family:Blanch-Caps, Blanch">	</text><text transform="translate(2.95 13.21) rotate(-61.14)" style="font-size:4.072847843170166px;font-family:Blanch-Caps, Blanch">	</text><text transform="matrix(0.6, -0.8, 0.8, 0.6, 4.73, 10.37)" style="font-size:4.072847843170166px;font-family:Blanch-Caps, Blanch">	</text><text transform="translate(6.88 7.77) rotate(-45.77)" style="font-size:4.072847843170166px;font-family:Blanch-Caps, Blanch">	</text><text transform="translate(9.35 5.5) rotate(-38.12)" style="font-size:4.072847843170166px;font-family:Blanch-Caps, Blanch"> </text><text transform="matrix(0.8, -0.6, 0.6, 0.8, 9.81, 5.14)" style="font-size:4.072847843170166px;font-family:Blanch-Caps, Blanch"> </text><text transform="matrix(0.81, -0.58, 0.58, 0.81, 10.26, 4.8)" style="font-size:4.072847843170166px;font-family:Blanch-Caps, Blanch"> </text><text transform="translate(10.72 4.48) rotate(-34.21)" style="font-size:4.072847843170166px;font-family:Blanch-Caps, Blanch"> </text><text transform="translate(11.18 4.16) rotate(-32.23)" style="font-size:4.072847843170166px;font-family:Blanch-Caps, Blanch">P</text><text transform="translate(12.18 3.53) rotate(-29.73)" style="font-size:4.072847843170166px;font-family:Blanch-Caps, Blanch">e</text><text transform="matrix(0.89, -0.46, 0.46, 0.89, 13.03, 3.04)" style="font-size:4.072847843170166px;font-family:Blanch-Caps, Blanch">t</text><text transform="matrix(0.91, -0.42, 0.42, 0.91, 13.92, 2.57)" style="font-size:4.072847843170166px;font-family:Blanch-Caps, Blanch">r</text><text transform="translate(15.03 2.06) rotate(-22.05)" style="font-size:4.072847843170166px;font-family:Blanch-Caps, Blanch">o</text><text transform="matrix(0.94, -0.33, 0.33, 0.94, 16.2, 1.59)" style="font-size:4.072847843170166px;font-family:Blanch-Caps, Blanch">l</text><text transform="translate(17.1 1.27) rotate(-17.72)" style="font-size:4.072847843170166px;font-family:Blanch-Caps, Blanch">	</text><text transform="translate(18.24 0.92) rotate(-14.96)" style="font-size:4.072847843170166px;font-family:Blanch-Caps, Blanch">	</text><text transform="translate(21.53 0.24) rotate(-7.25)" style="font-size:4.072847843170166px;font-family:Blanch-Caps, Blanch">	</text><text transform="translate(24.89 0) rotate(0.93)" style="font-size:4.072847843170166px;font-family:Blanch-Caps, Blanch">	</text><text transform="translate(28.25 0.21) rotate(8.06)" style="font-size:4.072847843170166px;font-family:Blanch-Caps, Blanch"> </text><text transform="matrix(0.99, 0.16, -0.16, 0.99, 28.81, 0.29)" style="font-size:4.072847843170166px;font-family:Blanch-Caps, Blanch"> </text><text transform="matrix(0.98, 0.19, -0.19, 0.98, 29.37, 0.38)" style="font-size:4.072847843170166px;font-family:Blanch-Caps, Blanch"> </text><text transform="translate(29.94 0.49) rotate(12.01)" style="font-size:4.072847843170166px;font-family:Blanch-Caps, Blanch"> </text><text transform="translate(30.51 0.61) rotate(13.36)" style="font-size:4.072847843170166px;font-family:Blanch-Caps, Blanch"> </text><text transform="matrix(0.97, 0.25, -0.25, 0.97, 31.04, 0.73)" style="font-size:4.072847843170166px;font-family:Blanch-Caps, Blanch"> </text><text transform="translate(31.6 0.88) rotate(15.94)" style="font-size:4.072847843170166px;font-family:Blanch-Caps, Blanch"> </text><text transform="matrix(0.95, 0.3, -0.3, 0.95, 32.15, 1.04)" style="font-size:4.072847843170166px;font-family:Blanch-Caps, Blanch"> </text><text transform="translate(32.7 1.21) rotate(18.61)" style="font-size:4.072847843170166px;font-family:Blanch-Caps, Blanch"> </text><text transform="translate(33.25 1.38) rotate(20.73)" style="font-size:4.072847843170166px;font-family:Blanch-Caps, Blanch">H</text><text transform="matrix(0.92, 0.4, -0.4, 0.92, 34.41, 1.82)" style="font-size:4.072847843170166px;font-family:Blanch-Caps, Blanch">y</text><text transform="matrix(0.9, 0.44, -0.44, 0.9, 35.47, 2.28)" style="font-size:4.072847843170166px;font-family:Blanch-Caps, Blanch">b</text><text transform="translate(36.6 2.84) rotate(29.12)" style="font-size:4.072847843170166px;font-family:Blanch-Caps, Blanch">r</text><text transform="translate(37.67 3.44) rotate(31.2)" style="font-size:4.072847843170166px;font-family:Blanch-Caps, Blanch">i</text><text transform="translate(38.16 3.73) rotate(33.27)" style="font-size:4.072847843170166px;font-family:Blanch-Caps, Blanch">d</text><text transform="translate(39.22 4.43) rotate(35.37)" style="font-size:4.072847843170166px;font-family:Blanch-Caps, Blanch">	</text><text transform="translate(40.47 5.36) rotate(38.93)" style="font-size:4.072847843170166px;font-family:Blanch-Caps, Blanch">	</text><text transform="matrix(0.69, 0.73, -0.73, 0.69, 42.97, 7.62)" style="font-size:4.072847843170166px;font-family:Blanch-Caps, Blanch"> </text><text transform="matrix(0.67, 0.74, -0.74, 0.67, 43.36, 8.03)" style="font-size:4.072847843170166px;font-family:Blanch-Caps, Blanch"> </text><text transform="translate(43.74 8.45) rotate(49.18)" style="font-size:4.072847843170166px;font-family:Blanch-Caps, Blanch"> </text><text transform="matrix(0.64, 0.77, -0.77, 0.64, 44.13, 8.9)" style="font-size:4.072847843170166px;font-family:Blanch-Caps, Blanch"> </text><text transform="translate(44.49 9.33) rotate(51.84)" style="font-size:4.072847843170166px;font-family:Blanch-Caps, Blanch"> </text><text transform="translate(44.83 9.78) rotate(53.12)" style="font-size:4.072847843170166px;font-family:Blanch-Caps, Blanch"> </text><text transform="matrix(0.58, 0.81, -0.81, 0.58, 45.17, 10.23)" style="font-size:4.072847843170166px;font-family:Blanch-Caps, Blanch"> </text><text transform="matrix(0.56, 0.83, -0.83, 0.56, 45.52, 10.72)" style="font-size:4.072847843170166px;font-family:Blanch-Caps, Blanch"> </text><text transform="translate(45.84 11.18) rotate(57.08)" style="font-size:4.072847843170166px;font-family:Blanch-Caps, Blanch"> </text><text transform="matrix(0.52, 0.85, -0.85, 0.52, 46.15, 11.66)" style="font-size:4.072847843170166px;font-family:Blanch-Caps, Blanch"> </text><text transform="matrix(0.51, 0.86, -0.86, 0.51, 46.44, 12.14)" style="font-size:4.072847843170166px;font-family:Blanch-Caps, Blanch"> </text><text transform="translate(46.73 12.63) rotate(60.97)" style="font-size:4.072847843170166px;font-family:Blanch-Caps, Blanch"> </text><text transform="translate(47.02 13.14) rotate(62.31)" style="font-size:4.072847843170166px;font-family:Blanch-Caps, Blanch"> </text><text transform="matrix(0.44, 0.9, -0.9, 0.44, 47.29, 13.66)" style="font-size:4.072847843170166px;font-family:Blanch-Caps, Blanch"> </text><text transform="translate(47.54 14.17) rotate(64.97)" style="font-size:4.072847843170166px;font-family:Blanch-Caps, Blanch"> </text><text transform="translate(47.77 14.66) rotate(66.72)" style="font-size:4.072847843170166px;font-family:Blanch-Caps, Blanch">E</text><text transform="translate(48.17 15.59) rotate(69.01)" style="font-size:4.072847843170166px;font-family:Blanch-Caps, Blanch">l</text><text transform="translate(48.51 16.46) rotate(71.21)" style="font-size:4.072847843170166px;font-family:Blanch-Caps, Blanch">e</text><text transform="translate(48.84 17.42) rotate(73.79)" style="font-size:4.072847843170166px;font-family:Blanch-Caps, Blanch">c</text><text transform="translate(49.14 18.45) rotate(76.02)" style="font-size:4.072847843170166px;font-family:Blanch-Caps, Blanch">t</text><text transform="matrix(0.2, 0.98, -0.98, 0.2, 49.38, 19.42)" style="font-size:4.072847843170166px;font-family:Blanch-Caps, Blanch">r</text><text transform="translate(49.62 20.63) rotate(80.68)" style="font-size:4.072847843170166px;font-family:Blanch-Caps, Blanch">i</text><text transform="matrix(0.13, 0.99, -0.99, 0.13, 49.72, 21.2)" style="font-size:4.072847843170166px;font-family:Blanch-Caps, Blanch">c</text><text transform="matrix(0.09, 1, -1, 0.09, 49.87, 22.39)" style="font-size:4.072847843170166px;font-family:Blanch-Caps, Blanch"> </text></svg>