<svg id="Layer_1" data-name="Layer 1" xmlns="http://www.w3.org/2000/svg" viewBox="0 0 205.16 36.25"><defs><style>.cls-1{fill:#f5f5f5;}</style></defs><title>footer-logo</title><path class="cls-1" d="M175.81,4.2c-3.22,1.12-7.55,3.5-8.11,9.93a21.74,21.74,0,0,0,.42,6.71c.7,2.66,2.94,5,8,5.74,5.74.84,17.21,1.26,22.38-.42a9.63,9.63,0,0,0,6-6.3c.84-3.08.84-10.91.28-13.85a7.64,7.64,0,0,0-6-5.88A6.84,6.84,0,0,0,196.93,0c-5.46-.14-17.35,2.8-21.12,4.2m1.69,8.29c-.56,0-1.12-.14-2-.14s-1.4.42-1.4,2v1.4c0,1.4.56,2,1.4,2a19.3,19.3,0,0,0,2-.14c.14,0,.28.14.42.28a4.76,4.76,0,0,1,.14,1.4c0,.14-.14.28-.28.42a9.13,9.13,0,0,1-2.38.28c-2.38,0-3.78-1.54-3.78-4.2v-1.4c0-2.66,1.54-4.2,3.78-4.2a9.13,9.13,0,0,1,2.38.28c.28,0,.42.14.28.42a5.25,5.25,0,0,0-.14,1.4c0,.14-.14.28-.42.28m9.93,3.08c0,2.66-1.4,4.34-4.06,4.34s-4.2-1.68-4.2-4.34v-1.2c0-2.66,1.4-4.34,4.2-4.34s4.06,1.68,4.06,4.34Zm14.13,3.78a.3.3,0,0,1-.28.28h-2a.3.3,0,0,1-.28-.28v-5.6c0-1.12-.28-1.4-1-1.4a2.3,2.3,0,0,0-1.26.28v6.71a.3.3,0,0,1-.28.28h-2.1a.3.3,0,0,1-.28-.28v-5.6c0-1.12-.14-1.4-1-1.4a3.22,3.22,0,0,0-1.26.42v6.57a.3.3,0,0,1-.28.28h-2.1a.3.3,0,0,1-.28-.28V10.54a.3.3,0,0,1,.28-.28h1.82a.3.3,0,0,1,.28.28V11a4.88,4.88,0,0,1,2.38-.84,2.35,2.35,0,0,1,2,.84,4.94,4.94,0,0,1,2.66-.84c2.24,0,2.8,1.4,2.8,3.64Zm-16.79-3.78v-1.2c0-1.4-.56-2-1.4-2s-1.54.56-1.54,2v1.12c0,1.4.56,2,1.54,2s1.4-.56,1.4-2"/><g id="g4047"><path id="path4049" class="cls-1" d="M170.52,31.58a4.81,4.81,0,0,0-.7-2.8,4.26,4.26,0,0,0-3.5-1.26h-1.26a4.26,4.26,0,0,0-3.5,1.26,4.81,4.81,0,0,0-.7,2.8,5,5,0,0,0,.7,2.94c.7,1,1.82,1.26,3.5,1.26h1.12c1.68,0,2.94-.28,3.64-1.26a5,5,0,0,0,.7-2.94"/></g><g id="g4051"><path id="path4053" class="cls-1" d="M107.58,36.25c5.88,0,7.83-3.5,7.83-6.57s-1.54-4.9-4.2-6.43-3.64-2-4.62-2.52-1.26-.7-1.26-1.54.7-1.26,2.24-1.26a50.84,50.84,0,0,1,5.46.56,1.18,1.18,0,0,0,1.39-.93v-.07a14.35,14.35,0,0,1,.56-2,1.15,1.15,0,0,0-.66-1.49l-.18-.05A26.14,26.14,0,0,0,107,12.89c-4.9,0-7.69,2.38-7.69,6.57,0,2.1,1.12,3.78,3.36,5.18s4.2,2.52,5.32,3.22,1.4,1.4,1.4,1.68c0,.7-.42,1.4-2.24,1.4a33.84,33.84,0,0,1-5.88-.7,1.27,1.27,0,0,0-1.4.7,15.68,15.68,0,0,1-.56,2.94,1.23,1.23,0,0,0,.7,1.54,32.56,32.56,0,0,0,7.55.84m-96.1-.14a37.64,37.64,0,0,0,6.3-.7,1.25,1.25,0,0,0,1.12-1.54c-.14-.56-.56-2-.7-2.38a1.28,1.28,0,0,0-1.4-1.12c-1,0-3.5.28-5.32.28q-5,0-5-6.71v-5.6q0-6.71,5-6.71c1.82,0,3.92.14,5.18.28a1.27,1.27,0,0,0,1.26-.84,20.45,20.45,0,0,0,.7-2.8,1.24,1.24,0,0,0-.84-1.4A30.21,30.21,0,0,0,11.19,6C7.83,6,0,7.16,0,18.07v5.6C.28,35.28,8.81,36.11,11.47,36.11m79.18-1.54a1.25,1.25,0,0,0,1.24,1.26h3.52a1.23,1.23,0,0,0,1.12-1.26V14.71a1.25,1.25,0,0,0-1.24-1.26H91.77a1.25,1.25,0,0,0-1.26,1.24s0,0,0,0v15a9.4,9.4,0,0,1-3.92,1.4c-2.38,0-2.8-.84-2.8-3.92V14.71a1.25,1.25,0,0,0-1.24-1.26H79a1.25,1.25,0,0,0-1.26,1.24s0,0,0,0V27.16c0,5.46,1.54,9,7,9a10.44,10.44,0,0,0,5.88-1.54M70.5,35.84a1.23,1.23,0,0,0,1.26-1.12V18.21h3.08a1.23,1.23,0,0,0,1.26-1.12V14.85a1.25,1.25,0,0,0-1.24-1.26h-3.1V12.05c0-1.54.28-1.82,1.82-1.82.28,0,1.54.14,1.54.14a1.27,1.27,0,0,0,1.26-.84,17.83,17.83,0,0,0,.56-2,1.2,1.2,0,0,0-.8-1.5L76,6a17.46,17.46,0,0,0-3-.24c-3.5,0-7,.84-7,6.57v1.4H63.09A1.25,1.25,0,0,0,61.83,15s0,0,0,0v1.82c0,.56.28,1,1.12,1.12S66,18.5,66,18.5V34.58a1.25,1.25,0,0,0,1.24,1.26H70.5Zm-11.61,0a1.23,1.23,0,0,0,1.26-1.12V22.27c0-4.48-.84-9-7-9a9.81,9.81,0,0,0-5.74,1.54,1.25,1.25,0,0,0-1.24-1.26H42.81a1.25,1.25,0,0,0-1.26,1.24s0,0,0,0V34.58a1.25,1.25,0,0,0,1.24,1.26h3.52a1.25,1.25,0,0,0,1.26-1.24s0,0,0,0v-15a8.92,8.92,0,0,1,3.92-1.26c2.52,0,2.8.56,2.8,3.78V34.58a1.25,1.25,0,0,0,1.24,1.26h3.36ZM156.12,4.78a30.3,30.3,0,0,1-3.5.56,1.2,1.2,0,0,0-1,1.26v6.71a25.86,25.86,0,0,0-3.22-.14c-6.16,0-9.51,3.5-9.51,9.93V26c0,6.43,3.36,9.93,9.51,9.93a36.23,36.23,0,0,0,7.69-1c.84-.28,1.4-.56,1.4-1.4V6a1.29,1.29,0,0,0-1.32-1.26h-.08m-4.59,26.2a22.69,22.69,0,0,1-3.22.14c-2.52,0-3.64-1.4-3.64-5v-3c0-3.5,1-5,3.64-5,.7,0,2.1.14,3.22.14ZM29.66,13.17c-5.74,0-9.51,3.78-9.51,9.93v3.08c0,6.16,3.64,9.93,9.51,9.93s9.51-3.78,9.51-9.93V23.11c0-6.16-3.78-9.93-9.51-9.93m3.5,13c0,2.94-1.26,4.76-3.64,4.76s-3.64-1.68-3.64-4.76V23.11c0-2.94,1.26-4.62,3.64-4.62s3.64,1.68,3.64,4.62Zm93.87-13c-5.88,0-9.51,3.78-9.51,10.07V26c0,7.41,5.18,9.93,9.65,9.93a29.08,29.08,0,0,0,7.69-1.4,1.25,1.25,0,0,0,.84-1.4,13.1,13.1,0,0,1-.56-2.24,1.27,1.27,0,0,0-1.26-.84,32.34,32.34,0,0,1-6.3.7c-3.36,0-4.06-2.38-4.06-4.06h11.89a1.25,1.25,0,0,0,1.26-1.24s0,0,0,0V23.11c-.14-6-3.78-9.93-9.65-9.93m-3.64,9.23c.14-2.38,1.4-3.92,3.64-3.92s3.5,1.54,3.5,3.92h-7.14Z"/></g></svg>