<svg xmlns="http://www.w3.org/2000/svg" xmlns:xlink="http://www.w3.org/1999/xlink" viewBox="0 0 24 24"><defs><pattern id="a" width="72" height="72" patternTransform="translate(-14 -84)" patternUnits="userSpaceOnUse" viewBox="0 0 72 72"><rect width="72" height="72" style="fill:none"/><line x1="64.52" y1="82.52" x2="82.52" y2="64.52" style="fill:none;stroke:#231f20;stroke-linejoin:round;stroke-width:0.30000000000000004px"/><line x1="64.52" y1="88.52" x2="88.52" y2="64.52" style="fill:none;stroke:#231f20;stroke-linejoin:round;stroke-width:0.30000000000000004px"/><line x1="64.52" y1="94.52" x2="94.52" y2="64.52" style="fill:none;stroke:#231f20;stroke-linejoin:round;stroke-width:0.30000000000000004px"/><line x1="64.52" y1="100.52" x2="100.52" y2="64.52" style="fill:none;stroke:#231f20;stroke-linejoin:round;stroke-width:0.30000000000000004px"/><line x1="64.52" y1="106.52" x2="106.52" y2="64.52" style="fill:none;stroke:#231f20;stroke-linejoin:round;stroke-width:0.30000000000000004px"/><line x1="64.52" y1="112.52" x2="112.52" y2="64.52" style="fill:none;stroke:#231f20;stroke-linejoin:round;stroke-width:0.30000000000000004px"/><line x1="64.52" y1="118.52" x2="118.52" y2="64.52" style="fill:none;stroke:#231f20;stroke-linejoin:round;stroke-width:0.30000000000000004px"/><line x1="64.52" y1="124.52" x2="124.52" y2="64.52" style="fill:none;stroke:#231f20;stroke-linejoin:round;stroke-width:0.30000000000000004px"/><line x1="64.52" y1="130.52" x2="130.52" y2="64.52" style="fill:none;stroke:#231f20;stroke-linejoin:round;stroke-width:0.30000000000000004px"/><line x1="64.52" y1="136.52" x2="136.52" y2="64.52" style="fill:none;stroke:#231f20;stroke-linejoin:round;stroke-width:0.30000000000000004px"/><line x1="64.52" y1="142.52" x2="142.52" y2="64.52" style="fill:none;stroke:#231f20;stroke-linejoin:round;stroke-width:0.30000000000000004px"/><line x1="64.52" y1="148.51" x2="148.52" y2="64.52" style="fill:none;stroke:#231f20;stroke-linejoin:round;stroke-width:0.30000000000000004px"/><line x1="70.52" y1="148.51" x2="148.52" y2="70.52" style="fill:none;stroke:#231f20;stroke-linejoin:round;stroke-width:0.30000000000000004px"/><line x1="-7.48" y1="82.52" x2="10.52" y2="64.52" style="fill:none;stroke:#231f20;stroke-linejoin:round;stroke-width:0.30000000000000004px"/><line x1="-7.48" y1="88.52" x2="16.52" y2="64.52" style="fill:none;stroke:#231f20;stroke-linejoin:round;stroke-width:0.30000000000000004px"/><line x1="-7.48" y1="94.52" x2="22.52" y2="64.52" style="fill:none;stroke:#231f20;stroke-linejoin:round;stroke-width:0.30000000000000004px"/><line x1="-7.48" y1="100.52" x2="28.52" y2="64.52" style="fill:none;stroke:#231f20;stroke-linejoin:round;stroke-width:0.30000000000000004px"/><line x1="-7.48" y1="106.52" x2="34.52" y2="64.52" style="fill:none;stroke:#231f20;stroke-linejoin:round;stroke-width:0.30000000000000004px"/><line x1="-7.48" y1="112.52" x2="40.52" y2="64.52" style="fill:none;stroke:#231f20;stroke-linejoin:round;stroke-width:0.30000000000000004px"/><line x1="-7.48" y1="118.52" x2="46.52" y2="64.52" style="fill:none;stroke:#231f20;stroke-linejoin:round;stroke-width:0.30000000000000004px"/><line x1="-7.48" y1="124.52" x2="52.52" y2="64.52" style="fill:none;stroke:#231f20;stroke-linejoin:round;stroke-width:0.30000000000000004px"/><line x1="-7.48" y1="130.52" x2="58.52" y2="64.52" style="fill:none;stroke:#231f20;stroke-linejoin:round;stroke-width:0.30000000000000004px"/><line x1="-7.48" y1="136.52" x2="64.52" y2="64.52" style="fill:none;stroke:#231f20;stroke-linejoin:round;stroke-width:0.30000000000000004px"/><line x1="-7.48" y1="142.52" x2="70.52" y2="64.52" style="fill:none;stroke:#231f20;stroke-linejoin:round;stroke-width:0.30000000000000004px"/><line x1="-7.48" y1="148.51" x2="76.52" y2="64.52" style="fill:none;stroke:#231f20;stroke-linejoin:round;stroke-width:0.30000000000000004px"/><line x1="-1.48" y1="148.51" x2="76.52" y2="70.52" style="fill:none;stroke:#231f20;stroke-linejoin:round;stroke-width:0.30000000000000004px"/><line x1="-79.48" y1="148.51" x2="4.52" y2="64.52" style="fill:none;stroke:#231f20;stroke-linejoin:round;stroke-width:0.30000000000000004px"/><line x1="-73.48" y1="148.51" x2="4.52" y2="70.52" style="fill:none;stroke:#231f20;stroke-linejoin:round;stroke-width:0.30000000000000004px"/><line x1="64.52" y1="10.52" x2="82.52" y2="-7.48" style="fill:none;stroke:#231f20;stroke-linejoin:round;stroke-width:0.30000000000000004px"/><line x1="64.52" y1="16.52" x2="88.52" y2="-7.48" style="fill:none;stroke:#231f20;stroke-linejoin:round;stroke-width:0.30000000000000004px"/><line x1="64.52" y1="22.52" x2="94.52" y2="-7.48" style="fill:none;stroke:#231f20;stroke-linejoin:round;stroke-width:0.30000000000000004px"/><line x1="64.52" y1="28.52" x2="100.52" y2="-7.48" style="fill:none;stroke:#231f20;stroke-linejoin:round;stroke-width:0.30000000000000004px"/><line x1="64.52" y1="34.52" x2="106.52" y2="-7.48" style="fill:none;stroke:#231f20;stroke-linejoin:round;stroke-width:0.30000000000000004px"/><line x1="64.52" y1="40.52" x2="112.52" y2="-7.48" style="fill:none;stroke:#231f20;stroke-linejoin:round;stroke-width:0.30000000000000004px"/><line x1="64.52" y1="46.52" x2="118.52" y2="-7.48" style="fill:none;stroke:#231f20;stroke-linejoin:round;stroke-width:0.30000000000000004px"/><line x1="64.52" y1="52.52" x2="124.52" y2="-7.48" style="fill:none;stroke:#231f20;stroke-linejoin:round;stroke-width:0.30000000000000004px"/><line x1="64.52" y1="58.52" x2="130.52" y2="-7.48" style="fill:none;stroke:#231f20;stroke-linejoin:round;stroke-width:0.30000000000000004px"/><line x1="64.52" y1="64.52" x2="136.52" y2="-7.48" style="fill:none;stroke:#231f20;stroke-linejoin:round;stroke-width:0.30000000000000004px"/><line x1="64.52" y1="70.52" x2="142.52" y2="-7.48" style="fill:none;stroke:#231f20;stroke-linejoin:round;stroke-width:0.30000000000000004px"/><line x1="64.52" y1="76.51" x2="148.52" y2="-7.48" style="fill:none;stroke:#231f20;stroke-linejoin:round;stroke-width:0.30000000000000004px"/><line x1="70.52" y1="76.51" x2="148.52" y2="-1.48" style="fill:none;stroke:#231f20;stroke-linejoin:round;stroke-width:0.30000000000000004px"/><line x1="-7.48" y1="10.52" x2="10.52" y2="-7.48" style="fill:none;stroke:#231f20;stroke-linejoin:round;stroke-width:0.30000000000000004px"/><line x1="-7.48" y1="16.52" x2="16.52" y2="-7.48" style="fill:none;stroke:#231f20;stroke-linejoin:round;stroke-width:0.30000000000000004px"/><line x1="-7.48" y1="22.52" x2="22.52" y2="-7.48" style="fill:none;stroke:#231f20;stroke-linejoin:round;stroke-width:0.30000000000000004px"/><line x1="-7.48" y1="28.52" x2="28.52" y2="-7.48" style="fill:none;stroke:#231f20;stroke-linejoin:round;stroke-width:0.30000000000000004px"/><line x1="-7.48" y1="34.52" x2="34.52" y2="-7.48" style="fill:none;stroke:#231f20;stroke-linejoin:round;stroke-width:0.30000000000000004px"/><line x1="-7.48" y1="40.52" x2="40.52" y2="-7.48" style="fill:none;stroke:#231f20;stroke-linejoin:round;stroke-width:0.30000000000000004px"/><line x1="-7.48" y1="46.52" x2="46.52" y2="-7.48" style="fill:none;stroke:#231f20;stroke-linejoin:round;stroke-width:0.30000000000000004px"/><line x1="-7.48" y1="52.52" x2="52.52" y2="-7.48" style="fill:none;stroke:#231f20;stroke-linejoin:round;stroke-width:0.30000000000000004px"/><line x1="-7.48" y1="58.52" x2="58.52" y2="-7.48" style="fill:none;stroke:#231f20;stroke-linejoin:round;stroke-width:0.30000000000000004px"/><line x1="-7.48" y1="64.52" x2="64.52" y2="-7.48" style="fill:none;stroke:#231f20;stroke-linejoin:round;stroke-width:0.30000000000000004px"/><line x1="-7.48" y1="70.52" x2="70.52" y2="-7.48" style="fill:none;stroke:#231f20;stroke-linejoin:round;stroke-width:0.30000000000000004px"/><line x1="-7.48" y1="76.51" x2="76.52" y2="-7.48" style="fill:none;stroke:#231f20;stroke-linejoin:round;stroke-width:0.30000000000000004px"/><line x1="-1.48" y1="76.51" x2="76.52" y2="-1.48" style="fill:none;stroke:#231f20;stroke-linejoin:round;stroke-width:0.30000000000000004px"/><line x1="4.52" y1="76.51" x2="76.52" y2="4.52" style="fill:none;stroke:#231f20;stroke-linejoin:round;stroke-width:0.30000000000000004px"/><line x1="10.52" y1="76.51" x2="76.52" y2="10.52" style="fill:none;stroke:#231f20;stroke-linejoin:round;stroke-width:0.30000000000000004px"/><line x1="16.52" y1="76.51" x2="76.52" y2="16.52" style="fill:none;stroke:#231f20;stroke-linejoin:round;stroke-width:0.30000000000000004px"/><line x1="22.52" y1="76.51" x2="76.52" y2="22.52" style="fill:none;stroke:#231f20;stroke-linejoin:round;stroke-width:0.30000000000000004px"/><line x1="28.52" y1="76.51" x2="76.52" y2="28.52" style="fill:none;stroke:#231f20;stroke-linejoin:round;stroke-width:0.30000000000000004px"/><line x1="34.52" y1="76.51" x2="76.52" y2="34.52" style="fill:none;stroke:#231f20;stroke-linejoin:round;stroke-width:0.30000000000000004px"/><line x1="40.52" y1="76.51" x2="76.52" y2="40.52" style="fill:none;stroke:#231f20;stroke-linejoin:round;stroke-width:0.30000000000000004px"/><line x1="46.52" y1="76.51" x2="76.52" y2="46.52" style="fill:none;stroke:#231f20;stroke-linejoin:round;stroke-width:0.30000000000000004px"/><line x1="52.52" y1="76.51" x2="76.52" y2="52.52" style="fill:none;stroke:#231f20;stroke-linejoin:round;stroke-width:0.30000000000000004px"/><line x1="58.52" y1="76.51" x2="76.52" y2="58.52" style="fill:none;stroke:#231f20;stroke-linejoin:round;stroke-width:0.30000000000000004px"/><line x1="64.52" y1="76.51" x2="76.52" y2="64.52" style="fill:none;stroke:#231f20;stroke-linejoin:round;stroke-width:0.30000000000000004px"/><line x1="-79.48" y1="76.51" x2="4.52" y2="-7.48" style="fill:none;stroke:#231f20;stroke-linejoin:round;stroke-width:0.30000000000000004px"/><line x1="-73.48" y1="76.51" x2="4.52" y2="-1.48" style="fill:none;stroke:#231f20;stroke-linejoin:round;stroke-width:0.30000000000000004px"/><line x1="-67.48" y1="76.51" x2="4.52" y2="4.52" style="fill:none;stroke:#231f20;stroke-linejoin:round;stroke-width:0.30000000000000004px"/><line x1="-61.48" y1="76.51" x2="4.52" y2="10.52" style="fill:none;stroke:#231f20;stroke-linejoin:round;stroke-width:0.30000000000000004px"/><line x1="-55.48" y1="76.51" x2="4.52" y2="16.52" style="fill:none;stroke:#231f20;stroke-linejoin:round;stroke-width:0.30000000000000004px"/><line x1="-49.48" y1="76.51" x2="4.52" y2="22.52" style="fill:none;stroke:#231f20;stroke-linejoin:round;stroke-width:0.30000000000000004px"/><line x1="-43.48" y1="76.51" x2="4.52" y2="28.52" style="fill:none;stroke:#231f20;stroke-linejoin:round;stroke-width:0.30000000000000004px"/><line x1="-37.48" y1="76.51" x2="4.52" y2="34.52" style="fill:none;stroke:#231f20;stroke-linejoin:round;stroke-width:0.30000000000000004px"/><line x1="-31.48" y1="76.51" x2="4.52" y2="40.52" style="fill:none;stroke:#231f20;stroke-linejoin:round;stroke-width:0.30000000000000004px"/><line x1="-25.48" y1="76.51" x2="4.52" y2="46.52" style="fill:none;stroke:#231f20;stroke-linejoin:round;stroke-width:0.30000000000000004px"/><line x1="-19.48" y1="76.51" x2="4.52" y2="52.52" style="fill:none;stroke:#231f20;stroke-linejoin:round;stroke-width:0.30000000000000004px"/><line x1="-13.48" y1="76.51" x2="4.52" y2="58.52" style="fill:none;stroke:#231f20;stroke-linejoin:round;stroke-width:0.30000000000000004px"/><line x1="-7.48" y1="76.51" x2="4.52" y2="64.52" style="fill:none;stroke:#231f20;stroke-linejoin:round;stroke-width:0.30000000000000004px"/><line x1="64.52" y1="4.51" x2="148.52" y2="-79.48" style="fill:none;stroke:#231f20;stroke-linejoin:round;stroke-width:0.30000000000000004px"/><line x1="70.52" y1="4.51" x2="148.52" y2="-73.48" style="fill:none;stroke:#231f20;stroke-linejoin:round;stroke-width:0.30000000000000004px"/><line x1="-7.48" y1="4.51" x2="76.52" y2="-79.48" style="fill:none;stroke:#231f20;stroke-linejoin:round;stroke-width:0.30000000000000004px"/><line x1="-1.48" y1="4.51" x2="76.52" y2="-73.48" style="fill:none;stroke:#231f20;stroke-linejoin:round;stroke-width:0.30000000000000004px"/><line x1="4.52" y1="4.51" x2="76.52" y2="-67.48" style="fill:none;stroke:#231f20;stroke-linejoin:round;stroke-width:0.30000000000000004px"/><line x1="10.52" y1="4.51" x2="76.52" y2="-61.48" style="fill:none;stroke:#231f20;stroke-linejoin:round;stroke-width:0.30000000000000004px"/><line x1="16.52" y1="4.51" x2="76.52" y2="-55.48" style="fill:none;stroke:#231f20;stroke-linejoin:round;stroke-width:0.30000000000000004px"/><line x1="22.52" y1="4.51" x2="76.52" y2="-49.48" style="fill:none;stroke:#231f20;stroke-linejoin:round;stroke-width:0.30000000000000004px"/><line x1="28.52" y1="4.51" x2="76.52" y2="-43.48" style="fill:none;stroke:#231f20;stroke-linejoin:round;stroke-width:0.30000000000000004px"/><line x1="34.52" y1="4.51" x2="76.52" y2="-37.48" style="fill:none;stroke:#231f20;stroke-linejoin:round;stroke-width:0.30000000000000004px"/><line x1="40.52" y1="4.51" x2="76.52" y2="-31.48" style="fill:none;stroke:#231f20;stroke-linejoin:round;stroke-width:0.30000000000000004px"/><line x1="46.52" y1="4.51" x2="76.52" y2="-25.48" style="fill:none;stroke:#231f20;stroke-linejoin:round;stroke-width:0.30000000000000004px"/><line x1="52.52" y1="4.51" x2="76.52" y2="-19.48" style="fill:none;stroke:#231f20;stroke-linejoin:round;stroke-width:0.30000000000000004px"/><line x1="58.52" y1="4.51" x2="76.52" y2="-13.48" style="fill:none;stroke:#231f20;stroke-linejoin:round;stroke-width:0.30000000000000004px"/><line x1="64.52" y1="4.51" x2="76.52" y2="-7.48" style="fill:none;stroke:#231f20;stroke-linejoin:round;stroke-width:0.30000000000000004px"/><line x1="-79.48" y1="4.51" x2="4.52" y2="-79.48" style="fill:none;stroke:#231f20;stroke-linejoin:round;stroke-width:0.30000000000000004px"/><line x1="-73.48" y1="4.51" x2="4.52" y2="-73.48" style="fill:none;stroke:#231f20;stroke-linejoin:round;stroke-width:0.30000000000000004px"/><line x1="-67.48" y1="4.51" x2="4.52" y2="-67.48" style="fill:none;stroke:#231f20;stroke-linejoin:round;stroke-width:0.30000000000000004px"/><line x1="-61.48" y1="4.51" x2="4.52" y2="-61.48" style="fill:none;stroke:#231f20;stroke-linejoin:round;stroke-width:0.30000000000000004px"/><line x1="-55.48" y1="4.51" x2="4.52" y2="-55.48" style="fill:none;stroke:#231f20;stroke-linejoin:round;stroke-width:0.30000000000000004px"/><line x1="-49.48" y1="4.51" x2="4.52" y2="-49.48" style="fill:none;stroke:#231f20;stroke-linejoin:round;stroke-width:0.30000000000000004px"/><line x1="-43.48" y1="4.51" x2="4.52" y2="-43.48" style="fill:none;stroke:#231f20;stroke-linejoin:round;stroke-width:0.30000000000000004px"/><line x1="-37.48" y1="4.51" x2="4.52" y2="-37.48" style="fill:none;stroke:#231f20;stroke-linejoin:round;stroke-width:0.30000000000000004px"/><line x1="-31.48" y1="4.51" x2="4.52" y2="-31.48" style="fill:none;stroke:#231f20;stroke-linejoin:round;stroke-width:0.30000000000000004px"/><line x1="-25.48" y1="4.51" x2="4.52" y2="-25.48" style="fill:none;stroke:#231f20;stroke-linejoin:round;stroke-width:0.30000000000000004px"/><line x1="-19.48" y1="4.51" x2="4.52" y2="-19.48" style="fill:none;stroke:#231f20;stroke-linejoin:round;stroke-width:0.30000000000000004px"/><line x1="-13.48" y1="4.51" x2="4.52" y2="-13.48" style="fill:none;stroke:#231f20;stroke-linejoin:round;stroke-width:0.30000000000000004px"/><line x1="-7.48" y1="4.51" x2="4.52" y2="-7.48" style="fill:none;stroke:#231f20;stroke-linejoin:round;stroke-width:0.30000000000000004px"/></pattern></defs><title>graph-nodata</title><g style="opacity:0.30000000000000004"><rect width="24" height="24" style="fill:url(#a)"/></g></svg>