<svg xmlns="http://www.w3.org/2000/svg" viewBox="0 0 967.57 312.42"><title>graph-eg-svg</title><path d="M967,285.08,951,280.61,945.19,279,932,275.33a12.82,12.82,0,0,0-5.78,0L913,279a30.39,30.39,0,0,0-5.51,2.26l-13.72,7.63a13.59,13.59,0,0,1-5.62,1.46h-13a7.72,7.72,0,0,0-5,2.23l-15,16.64a3.94,3.94,0,0,1-4.62.77l-13.72-7.63a9.91,9.91,0,0,1-3.74-4.24l-16.73-41.9a4.77,4.77,0,0,0-4.11-2.79h-13a7.67,7.67,0,0,1-5-2.23l-15-16.64a12.08,12.08,0,0,0-4.9-3l-13.18-3.67a26.6,26.6,0,0,0-5.89-.8h-13a9.59,9.59,0,0,0-5.3,1.92l-14.36,12a3.75,3.75,0,0,1-4.6,0l-14.36-12a3.74,3.74,0,0,0-4.61,0l-14.35,12a4.75,4.75,0,0,1-4.93.46l-13.71-7.63a6,6,0,0,0-5.25,0l-13.72,7.63a4.73,4.73,0,0,1-4.92-.46L628,229a6.41,6.41,0,0,0-5.19-1.12l-13.18,3.67a5.32,5.32,0,0,1-4.9-1.43l-15-16.64a36.88,36.88,0,0,1-3.54-4.8l-15.88-26.5c-.85-1.42-2.24-1.42-3.09,0l-15.87,26.5a3.13,3.13,0,0,1-4.17,1.11l-13.72-7.63a2.32,2.32,0,0,0-3.48,1.42L512.82,261.1c-.47,1.59-1.48,1.68-2.23.21l-16.22-31.59a45.23,45.23,0,0,1-2.3-5.52L475,171.89a36.41,36.41,0,0,1-1.27-5.84L455.41,3.23c-.18-1.64-.43-1.64-.55,0L436.33,255.71c-.12,1.65-1.25,2.13-2.52,1.07l-14.35-12a17.75,17.75,0,0,1-3.68-4.59l-16.22-31.58c-.75-1.47-1.68-1.36-2.07.24l-17.56,73.29c-.38,1.6-1.06,1.62-1.5,0L361.07,219.4c-.44-1.59-1.19-1.6-1.66,0l-17.24,57.55a8.5,8.5,0,0,1-3.48,4.33L325,288.89a13.59,13.59,0,0,1-5.62,1.46h-13a7.72,7.72,0,0,0-5,2.23l-14.95,16.64a2.32,2.32,0,0,1-3.76-.21l-15.46-21.5-3.5-4.87-15.46-21.5a2.32,2.32,0,0,0-3.76-.2l-15,16.63a12.17,12.17,0,0,1-4.89,3l-13.18,3.66a6.43,6.43,0,0,1-5.2-1.11l-14.35-12a4.73,4.73,0,0,0-4.93-.47l-13.71,7.63a8.43,8.43,0,0,1-5.52.66l-13.18-3.67a12.82,12.82,0,0,0-5.78,0L135.62,279a12.15,12.15,0,0,0-4.89,3l-15,16.64a5.3,5.3,0,0,1-4.89,1.43L97.7,296.43a9.92,9.92,0,0,1-4.64-3.24L77.6,271.69a1.69,1.69,0,0,0-3.12.23L58.26,303.51a5.45,5.45,0,0,1-4.38,2.67H0" style="fill:none;stroke:#13839a;stroke-linejoin:round;stroke-width:4px"/></svg>