<svg xmlns="http://www.w3.org/2000/svg" viewBox="0 0 59.5 59.5"><title>icon-pump</title><path d="M30,6.47H12.68a1.15,1.15,0,0,0-1.21,1.22v18.4a1.14,1.14,0,0,0,1.21,1.22H30a1.15,1.15,0,0,0,1.22-1.22V7.69A1.15,1.15,0,0,0,30,6.47ZM28.78,24.88H13.9v-16H28.78Z" style="fill:#ca0814;stroke:#ca0814;stroke-miterlimit:10"/><path d="M30,30.84H12.68a1.22,1.22,0,0,0,0,2.44H30a1.22,1.22,0,0,0,0-2.44Z" style="fill:#ca0814;stroke:#ca0814;stroke-miterlimit:10"/><path d="M30,36.81H26.34a1.22,1.22,0,0,0,0,2.44H30a1.22,1.22,0,0,0,0-2.44Z" style="fill:#ca0814;stroke:#ca0814;stroke-miterlimit:10"/><path d="M16.34,36.81H12.68a1.22,1.22,0,0,0,0,2.44h3.66a1.22,1.22,0,1,0,0-2.44Z" style="fill:#ca0814;stroke:#ca0814;stroke-miterlimit:10"/><path d="M57.78,56.56H39.62V50.47a1.1,1.1,0,0,0-.36-.85l-2.08-2.08V21.71a4.9,4.9,0,0,1,4.51,4.87V45.84a7.32,7.32,0,0,0,14.63,0V15.37a1.54,1.54,0,0,0-.49-1L45.35,7.33A1.23,1.23,0,1,0,44,9.4l4.87,3.29v6.7a1.15,1.15,0,0,0,1.22,1.22h3.78V45.84a4.88,4.88,0,0,1-9.75,0V26.58a7.34,7.34,0,0,0-7-7.31V4.16A3.59,3.59,0,0,0,33.53.5H9.15A3.59,3.59,0,0,0,5.5,4.16V47.54L3.42,49.62a1.1,1.1,0,0,0-.36.85v6.09H1.72a1.22,1.22,0,1,0,0,2.44H57.78a1.22,1.22,0,0,0,0-2.44ZM51.44,18.17v-3.9L54,16v2.19ZM5.5,56.56V51l2.07-2.08A1.1,1.1,0,0,0,7.93,48V4.16A1.15,1.15,0,0,1,9.15,2.94H33.53a1.15,1.15,0,0,1,1.22,1.22V48a1.1,1.1,0,0,0,.36.85L37.18,51v5.6Z" style="fill:#ca0814;stroke:#ca0814;stroke-miterlimit:10"/></svg>