<svg id="Layer_1" data-name="Layer 1" xmlns="http://www.w3.org/2000/svg" viewBox="0 0 27.7 18.64"><defs><style>.cls-1{fill:#fff;}</style></defs><title>icon-embed</title><path class="cls-1" d="M22.4,3.82a.9.9,0,0,0-1.4.1l-.9.9a.9.9,0,0,0,.1,1.4l2.4,2.3a1,1,0,0,1,0,1.4l-2.4,2.3a1.07,1.07,0,0,0-.1,1.4l.9.9a1.07,1.07,0,0,0,1.4.1l5-4.7a1,1,0,0,0,0-1.4Z"/><path class="cls-1" d="M7,6.22a1.07,1.07,0,0,0,.1-1.4l-.6-.7A1.07,1.07,0,0,0,5.1,4L.3,8.52a1,1,0,0,0,0,1.4L5,14.32a.9.9,0,0,0,1.4-.1l.6-.7a.9.9,0,0,0-.1-1.4L4.5,9.82a1,1,0,0,1,0-1.4Z"/><path class="cls-1" d="M12.9,17.92a1,1,0,0,1-1.2.7l-1.2-.3a1,1,0,0,1-.7-1.2L14.2.72A1,1,0,0,1,15.4,0l1.2.3a1,1,0,0,1,.7,1.2Z"/></svg>