<svg xmlns="http://www.w3.org/2000/svg" viewBox="0 0 77.26 75.99"><title>icon-title</title><path d="M56.68,41.89l1.06.23,16-14.68c.92-1,.74-2-.62-2.42L62.94,21.89l4-6.11,5.53-9.54c.41-1.36,0-1.61-1-.69l-20.74,19c-.92,1-.74,2,.62,2.42l10.21,3.13-5.71,9.36Z"/><path d="M72.72,48.53,54.41,44.46l-3.82-10.8a2,2,0,0,0-1.85-1.31H31.06a2,2,0,0,0-2,2v.9H20.53c-5.41,0-8.28,6.07-9.33,8.92H6.35a2,2,0,0,0-2,2V61.58a2,2,0,0,0,2,2h4.8l.4-.08.33-.15.31-.21.27-.29.15-.17a10,10,0,0,1,18.1,2.58v.1a2,2,0,0,0,.14.3,3.15,3.15,0,0,0,.22.33,1.19,1.19,0,0,0,.19.2,1.87,1.87,0,0,0,.4.27l.18.1a2.2,2.2,0,0,0,.72.15h18a2,2,0,0,0,1.9-1.45,10,10,0,0,1,18.1-2.61,2,2,0,0,0,.71.75A2,2,0,0,0,74,62.69a1.71,1.71,0,0,0,.26-1.08V50.45A2,2,0,0,0,72.72,48.53ZM33,36.28H47.35l2.79,7.89H33Zm-12.5,2.9H29.1v5H15.44C16.48,41.88,18.25,39.18,20.53,39.18ZM70.35,56.67a13.87,13.87,0,0,0-19.41,2.77c-.26.36-.51.73-.74,1.11a13,13,0,0,0-1.07,2.14H34A13.84,13.84,0,0,0,9.87,59.61H8.27V48.1H52.71L70.35,52Z"/><path d="M21.06,59.61a8.19,8.19,0,1,0,8.18,8.2h0A8.2,8.2,0,0,0,21.06,59.61Zm0,12.45a4.26,4.26,0,1,1,4.29-4.26,4.26,4.26,0,0,1-4.29,4.26Z"/><path d="M61.61,59.61A8.19,8.19,0,1,0,69.8,67.8h0A8.21,8.21,0,0,0,61.61,59.61Zm0,12.45a4.26,4.26,0,1,1,4.26-4.26h0A4.28,4.28,0,0,1,61.61,72.06Z"/><path d="M24.54,44.78H22l-.29-.6"/><path d="M23.75,32.2Z"/><path d="M30.25,28.73a10.42,10.42,0,0,0-5.42-5,9.94,9.94,0,0,0-5-.3l-4-8.94a2.41,2.41,0,0,0-3.24-1.23l-11.07,5A2.41,2.41,0,0,0,.23,21.44L9.08,41.12c3-6,7-9.65,14.67-8.92l-2.08-4.64a4.46,4.46,0,0,1,1.61.21,6.27,6.27,0,0,1,3,2.84l.5,1.06a5.32,5.32,0,0,1,3.72-2.34ZM14.78,22.3,6.91,25.84a.51.51,0,0,1-.71-.27L4.33,21.39a.49.49,0,0,1,.26-.7l7.87-3.54a.51.51,0,0,1,.71.27L15,21.59A.5.5,0,0,1,14.78,22.3Z"/><path d="M37.8,29.35,33,19.3l1.54-3.85a3.43,3.43,0,0,0-.06-2.19L32.41,8.69,34.5,3a2.18,2.18,0,1,0-4.08-1.55l-3.17,8.78a10.78,10.78,0,0,0,.36,7.55l5.5,11.62"/></svg>