<svg xmlns="http://www.w3.org/2000/svg" viewBox="0 0 29.86 24.33"><defs><style>.cls-1{fill:#fff;}</style></defs><title>icon-twitter</title><g id="Layer_2" data-name="Layer 2"><g id="Mobile_Title_Footer" data-name="Mobile Title/Footer"><g id="lNT4Vr.tif"><path class="cls-1" d="M20.25,0h.86a6.12,6.12,0,0,1,4,1.85.17.17,0,0,0,.18.05A12.39,12.39,0,0,0,29,.5a.17.17,0,0,1,.1,0,4.88,4.88,0,0,1-.3.76,6.15,6.15,0,0,1-2.25,2.52s-.07,0-.08.07h0v0a5.08,5.08,0,0,0,.9-.13,12.05,12.05,0,0,0,2.44-.75s.05,0,.1,0c-.15.23-.31.44-.47.66A12.36,12.36,0,0,1,26.91,6a.17.17,0,0,0-.08.16,17.14,17.14,0,0,1,0,1.87,17.53,17.53,0,0,1-.58,3.38,18.06,18.06,0,0,1-3.87,7.23,16.38,16.38,0,0,1-7.46,4.88,17.47,17.47,0,0,1-3.28.7,18.76,18.76,0,0,1-3.09.11,17.3,17.3,0,0,1-6.59-1.65,17.54,17.54,0,0,1-1.82-1L0,21.59A12.47,12.47,0,0,0,9,19a6.2,6.2,0,0,1-5.72-4.27,6.59,6.59,0,0,0,2.76-.13,6.17,6.17,0,0,1-4.92-6.1,6.43,6.43,0,0,0,1.33.55,6.06,6.06,0,0,0,1.41.22s0,0-.05-.06A6,6,0,0,1,1.32,5.39,6,6,0,0,1,2,1.21c.06-.1.08-.09.15,0A17.38,17.38,0,0,0,6,4.66a17.28,17.28,0,0,0,4.47,2.11,17.17,17.17,0,0,0,3.12.65l1,.09c.1,0,.12,0,.1-.11a6,6,0,0,1,.91-4.71A6,6,0,0,1,19.73.06,3.34,3.34,0,0,1,20.25,0Z"/></g></g></g></svg>