<svg xmlns="http://www.w3.org/2000/svg" viewBox="0 0 13.19 28.23"><defs><style>.cls-1{fill:#fff;}</style></defs><title>icon-facebook</title><g id="Layer_2" data-name="Layer 2"><g id="Mobile_Title_Footer" data-name="Mobile Title/Footer"><g id="P9hfKN.tif"><path class="cls-1" d="M13.18,0c0,.12,0,.24,0,.36,0,1.41,0,2.83,0,4.24,0,.22-.06.28-.28.27q-1.18,0-2.37,0a4.67,4.67,0,0,0-.78.1A1.08,1.08,0,0,0,8.87,6c0,1,0,2-.05,3.07,0,.19.12.15.23.15h4.14l-.51,4.84H8.82V28.23H3.54V14.13H0C0,14,0,14,0,13.9,0,12.43,0,11,0,9.5c0-.21.07-.25.26-.25h3c.32,0,.32,0,.32-.31,0-1.29,0-2.59.05-3.88a6.43,6.43,0,0,1,.67-2.74A3.7,3.7,0,0,1,6.5.43C7.05.25,7.64.17,8.21.05L8.45,0Z"/></g></g></g></svg>